# xmcd CD database file
#
# Track frame offsets:
#	150
#	26152
#	49565
#
# Disc length: 710 seconds
#
# Revision: 0
# Processed by: cddbd v1.5PL3 Copyright (c) Steve Scherf et al.
# Submitted via: CDex 1.51
#
DISCID=1d02c403
DTITLE=LAREINE - Metamorphose
DYEAR=1998
DGENRE=JPop
TTITLE0=Metamorphose
TTITLE1=gerbe
TTITLE2=碧い幻影
EXTD=YEAR: 1998
EXTT0=
EXTT1=
EXTT2=
PLAYORDER=
